<svg width="102" height="102" viewBox="0 0 102 102" fill="none" xmlns="http://www.w3.org/2000/svg">
<path fill-rule="evenodd" clip-rule="evenodd" d="M51 0C79.1665 0 102 22.8335 102 51C102 79.1665 79.1665 102 51 102C22.8335 102 0 79.1665 0 51C0 22.8335 22.8335 0 51 0ZM44.5555 37L39 44V65H50.1111V44L44.5555 37ZM62.6111 39.8H54.2778C53.5107 39.8 52.8889 40.4268 52.8889 41.2V63.6C52.8889 64.3732 53.5107 65 54.2778 65H62.6111C63.3781 65 64 64.3732 64 63.6V59.4H61.2222V56.6H64V53.8H59.8333V51H64V48.2H61.2222V45.4H64V41.2C64 40.4268 63.3781 39.8 62.6111 39.8ZM47.3333 59.4V62.2H41.7778V59.4H47.3333Z" fill="#403E3B"/>
</svg>
