<svg width="102" height="102" viewBox="0 0 102 102" fill="none" xmlns="http://www.w3.org/2000/svg">
<path fill-rule="evenodd" clip-rule="evenodd" d="M51 0C79.1665 0 102 22.8335 102 51C102 79.1665 79.1665 102 51 102C22.8335 102 0 79.1665 0 51C0 22.8335 22.8335 0 51 0ZM52.3959 41.6732L43.4525 42.666C41.4667 51.2711 39.9743 56.4007 36 61.0347L37.9604 62.9922C42.6416 57.7643 44.0427 51.7654 45.7178 45.2385L51.3644 44.6123L57.4031 50.6462L56.7764 56.2883C50.2444 57.9622 44.2394 59.3622 39.0088 64.0397L40.9692 66C45.6054 62.0289 50.7405 60.5389 59.3524 58.5533L60.3459 49.6169L52.3959 41.6732ZM50.4088 51.6011C49.7031 50.871 48.6581 50.5782 47.6754 50.8352C46.6927 51.0922 45.9253 51.859 45.6681 52.8409C45.4109 53.8229 45.7039 54.8671 46.4346 55.5723C47.5412 56.6211 49.2817 56.5985 50.3593 55.5214C51.4369 54.4442 51.4589 52.7051 50.4088 51.6011ZM55.8741 37.205C55.6859 37.0173 55.4077 36.952 55.1555 37.0361C54.9033 37.1202 54.7202 37.3394 54.6824 37.6024L54.3845 39.6876L62.333 47.6299L64.4045 47.307C64.6662 47.2666 64.883 47.0826 64.9653 46.8311C65.0475 46.5795 64.9812 46.3032 64.7938 46.1162L55.8741 37.205Z" fill="#403E3B"/>
</svg>
